<?xml version="1.0" standalone="no"?>
<!DOCTYPE svg PUBLIC "-//W3C//DTD SVG 20010904//EN"
 "http://www.w3.org/TR/2001/REC-SVG-20010904/DTD/svg10.dtd">
<svg version="1.0" xmlns="http://www.w3.org/2000/svg"
 width="640.000000pt" height="640.000000pt" viewBox="0 0 640.000000 640.000000"
 preserveAspectRatio="xMidYMid meet">

<g transform="translate(0.000000,640.000000) scale(0.100000,-0.100000)"
fill="#000000" stroke="none">
<path d="M1598 6393 c881 -2 2323 -2 3205 0 881 1 160 2 -1603 2 -1763 0
-2484 -1 -1602 -2z"/>
<path d="M2052 4895 l-404 -184 -573 -3 c-565 -3 -574 -3 -602 -24 -20 -15
-29 -31 -31 -59 -3 -34 1 -42 46 -84 27 -25 88 -68 135 -96 77 -45 85 -53 90
-85 17 -116 149 -824 163 -870 20 -69 82 -194 126 -256 80 -112 97 -138 93
-142 -2 -3 8 -16 23 -31 127 -124 341 -245 467 -265 302 -48 698 -40 975 19
82 17 193 72 279 138 30 23 105 90 165 150 61 59 116 107 122 107 6 0 17 7 24
15 7 8 23 15 36 15 12 0 25 4 28 9 8 12 76 19 82 9 3 -4 13 -8 22 -8 27 0 102
-56 172 -128 135 -137 256 -229 365 -277 45 -20 89 -30 290 -65 112 -20 456
-24 620 -6 215 22 294 47 444 137 34 22 65 39 67 39 9 0 70 55 173 154 105
102 181 222 230 364 12 35 46 202 77 370 30 169 66 363 78 432 l23 125 52 30
c98 58 170 148 171 213 0 13 -11 34 -25 47 l-24 25 -612 0 c-586 0 -614 1
-653 19 -83 40 -663 304 -718 327 -101 42 -186 29 -245 -39 -73 -84 -68 -185
15 -269 l36 -38 -629 0 -630 0 33 26 c86 68 97 204 23 288 -29 33 -88 56 -143
55 -47 0 -99 -21 -456 -184z m-422 -544 c300 -3 738 -6 973 -6 l428 1 6 -26
c4 -15 -6 -73 -26 -150 -19 -69 -65 -244 -103 -390 -40 -156 -83 -294 -102
-335 -79 -168 -229 -288 -413 -331 -57 -13 -112 -15 -353 -9 -157 3 -319 11
-360 17 -236 33 -444 202 -521 425 -11 32 -42 182 -69 333 -27 151 -54 299
-60 329 -20 109 -9 165 33 154 12 -4 267 -9 567 -12z m3905 -5 c18 -27 22 0
-61 -461 -53 -294 -64 -337 -112 -429 -47 -90 -165 -211 -252 -259 -130 -71
-170 -78 -515 -89 -170 -5 -340 -7 -376 -4 -203 18 -400 157 -488 347 -16 35
-78 239 -136 453 -83 304 -104 394 -96 410 5 12 10 16 10 10 1 -12 18 -12 581
7 173 6 540 13 815 15 275 3 523 9 550 14 28 4 53 8 57 9 4 0 15 -10 23 -23z"/>
<path d="M1915 4264 c-73 -18 -170 -66 -216 -106 -19 -17 -26 -28 -17 -25 20
7 73 -27 101 -65 28 -37 36 -163 14 -204 -13 -24 -16 -25 -17 -9 -1 20 -1 20
-12 1 -8 -15 -8 -21 0 -24 17 -5 15 -22 -3 -22 -8 0 -19 -9 -25 -20 -6 -11
-22 -23 -35 -26 -14 -3 -23 -10 -20 -14 3 -5 -1 -15 -9 -23 -8 -8 -13 -17 -10
-20 3 -3 -4 -11 -16 -17 -36 -19 -86 -4 -120 38 l-30 37 5 -35 c24 -141 67
-222 179 -338 87 -90 154 -131 253 -157 110 -29 246 -14 344 37 50 25 162 135
153 149 -3 5 -1 9 3 9 15 0 101 183 112 238 12 59 14 134 4 171 l-6 23 -13
-28 -12 -29 -2 25 c-1 24 -2 24 -10 4 -8 -20 -12 -20 -72 -11 -34 5 -65 11
-66 13 -2 1 -7 17 -12 36 -4 18 -22 84 -39 147 -22 84 -28 118 -20 128 6 7 15
10 20 7 5 -3 9 -1 9 5 0 6 8 8 18 5 37 -12 -35 40 -93 67 -108 49 -226 60
-340 33z m-200 -534 c3 -5 1 -10 -4 -10 -6 0 -11 5 -11 10 0 6 2 10 4 10 3 0
8 -4 11 -10z"/>
<path d="M4265 4221 c-91 -45 -89 -43 -71 -79 46 -89 38 -206 -21 -295 -46
-70 -92 -100 -149 -95 -43 3 -44 3 -44 -28 0 -70 53 -191 127 -290 13 -17 23
-35 23 -40 0 -6 23 -35 50 -67 72 -80 158 -121 264 -126 104 -4 178 12 246 56
67 44 201 172 243 233 l31 45 -28 -18 c-28 -18 -28 -18 -21 2 4 15 2 21 -8 21
-8 0 -17 9 -20 20 -3 11 -12 20 -20 20 -8 0 -18 11 -21 25 -3 13 -20 35 -36
47 -17 12 -30 27 -30 34 0 7 -9 16 -20 19 -18 6 -24 16 -17 31 1 3 -6 10 -15
15 -10 6 -18 18 -18 27 0 14 -2 14 -9 3 -7 -11 -10 -9 -16 8 -3 11 -12 21 -18
21 -7 0 -6 4 3 10 13 9 13 10 0 10 -9 0 -37 23 -63 51 -26 28 -47 45 -47 39 0
-6 -5 -8 -11 -5 -6 4 -7 20 -4 38 6 26 5 30 -6 20 -20 -19 -31 -16 -24 7 4 11
3 20 -2 19 -23 -4 -35 2 -29 16 3 8 1 15 -5 15 -5 0 -18 17 -27 38 -27 59
-106 182 -117 182 -5 0 -37 -13 -70 -29z"/>
<path d="M1510 2651 c0 -5 7 -11 15 -15 8 -3 15 -1 15 3 0 5 -7 11 -15 15 -8
3 -15 1 -15 -3z"/>
<path d="M2580 2338 c-52 -36 -73 -71 -78 -132 -3 -44 0 -62 19 -96 28 -50 91
-90 142 -90 27 0 40 -6 54 -26 10 -14 30 -39 45 -57 l28 -31 -11 34 c-5 19
-17 73 -24 119 -12 67 -12 91 -2 122 6 22 15 39 18 39 4 0 10 11 13 25 4 14
23 36 45 50 l39 24 344 1 c364 1 380 0 422 -22 29 -15 39 -30 82 -117 24 -48
26 -60 20 -122 -4 -37 -11 -83 -16 -100 -13 -45 -6 -46 20 -4 33 54 48 65 87
65 47 0 102 32 133 77 20 29 25 49 25 99 0 70 -17 102 -75 142 l-33 22 -632 0
-632 0 -33 -22z"/>
<path d="M2925 1816 c60 -48 273 -83 404 -67 86 11 193 40 199 53 2 5 15 8 29
8 15 0 24 2 21 6 -3 3 -92 0 -197 -7 -181 -11 -324 -6 -446 18 -29 5 -29 5
-10 -11z"/>
<path d="M4054 1188 c-3 -4 4 -8 15 -8 12 0 21 4 21 8 0 5 -7 9 -15 9 -9 0
-18 -4 -21 -9z"/>
<path d="M4135 1177 c-11 -7 -22 -15 -25 -18 -3 -3 -22 -6 -42 -5 -27 1 -38 6
-38 16 -1 12 -3 11 -11 -3 -7 -12 -17 -16 -30 -12 -12 4 -34 -2 -55 -14 -19
-12 -42 -21 -50 -21 -8 0 -23 -9 -35 -21 -13 -13 -31 -20 -52 -18 -50 3 -86
-10 -81 -29 2 -10 -1 -5 -8 10 -12 24 -15 25 -33 11 -11 -8 -32 -13 -47 -10
-17 2 -28 -1 -28 -8 0 -8 11 -11 28 -8 24 3 24 2 6 -6 -11 -5 -35 -8 -52 -7
-18 1 -32 -2 -32 -7 0 -6 -8 -3 -17 5 -10 8 -36 16 -58 17 -35 3 -38 1 -25
-14 12 -15 11 -16 -13 -10 -21 6 -27 4 -27 -9 0 -9 -6 -16 -14 -16 -23 0 -28
18 -9 29 17 10 17 10 1 11 -10 0 -22 -9 -28 -20 -11 -20 -50 -28 -50 -10 0 6
-7 10 -15 10 -8 0 -15 -5 -15 -11 0 -7 -8 -9 -22 -4 -37 11 -170 8 -202 -4
-31 -13 -78 -5 -56 9 7 5 24 6 37 4 15 -3 22 -1 18 6 -3 5 -28 10 -56 10 -27
0 -58 5 -68 12 -15 9 -29 9 -61 -1 -30 -9 -46 -9 -53 -2 -6 6 -21 11 -34 11
-13 0 -26 7 -29 15 -8 20 -28 19 -49 -1 -14 -14 -18 -14 -38 -1 -17 11 -28 12
-41 5 -12 -7 -21 -7 -29 1 -8 8 -6 11 6 11 9 0 17 5 17 11 0 5 -4 8 -9 5 -5
-4 -11 -1 -13 5 -3 9 -10 9 -27 0 -12 -7 -29 -10 -36 -7 -7 2 -19 -2 -25 -10
-7 -8 -27 -14 -45 -14 -18 0 -44 -9 -58 -20 -14 -11 -29 -20 -34 -20 -4 -1
-24 -14 -43 -30 -19 -17 -41 -30 -50 -30 -12 0 -12 -2 -2 -9 7 -4 14 -20 16
-36 2 -19 15 -36 47 -57 24 -16 43 -33 42 -38 -1 -4 20 -11 48 -14 27 -4 60
-11 72 -16 52 -20 272 -57 402 -66 246 -17 723 -7 767 17 10 5 32 9 50 9 43 0
159 24 186 39 11 6 32 11 46 11 13 0 31 7 40 15 8 8 31 15 50 15 25 0 36 4 36
15 0 8 10 17 23 20 18 5 22 13 22 48 -1 48 -12 77 -30 77 -6 0 -20 9 -30 20
-10 11 -33 25 -51 32 -19 7 -34 14 -34 18 0 9 69 50 85 50 8 0 15 3 15 8 0 4
20 16 45 27 25 11 45 23 45 27 0 11 -11 9 -35 -5z m-1400 -127 c-3 -5 -10 -10
-16 -10 -5 0 -9 5 -9 10 0 6 7 10 16 10 8 0 12 -4 9 -10z m212 -45 c0 -8 -2
-15 -4 -15 -3 0 -11 7 -19 15 -14 13 -13 15 4 15 10 0 19 -7 19 -15z m533 -4
c0 -5 -10 -11 -22 -14 -22 -6 -22 -6 -4 8 23 17 26 18 26 6z"/>
</g>
</svg>
